<svg xmlns="http://www.w3.org/2000/svg" width="925" height="1246" class="d2-2182905057 d2-svg" viewBox="-89 -49 925 1246"><rect width="925" height="1246" x="-89" y="-49" class="fill-N7" rx="0"/><style>.connection,.shape{stroke-linejoin:round}.shape{shape-rendering:geometricPrecision}.connection{stroke-linecap:round}.blend{mix-blend-mode:multiply;opacity:.5}.d2-2182905057 .fill-N1{fill:#0a0f25}.d2-2182905057 .fill-N2{fill:#676c7e}.d2-2182905057 .fill-N5{fill:#dee1eb}.d2-2182905057 .fill-N7{fill:#fff}.d2-2182905057 .fill-B5{fill:#edf0fd}.d2-2182905057 .stroke-B1,.d2-2182905057 .stroke-B2{stroke:#0d32b2}.s0{stroke-width:2}.s1{text-anchor:middle;font-size:16px}.s2{stroke-width:2;stroke-dasharray:12,11.838767}</style><g ><g class="shape"><path d="M12 52h152v66H12z" class="stroke-B1 fill-B5 s0"/></g><text x="88" y="90.5" class="fill-N1 s1">Resource owner</text></g><g ><g class="shape"><path d="M213 52h100v66H213z" class="stroke-B1 fill-B5 s0"/></g><text x="263" y="90.5" class="fill-N1 s1">Client</text></g><g ><g class="shape"><path d="M362 52h151v66H362z" class="stroke-B1 fill-B5 s0"/></g><text x="437.5" y="90.5" class="fill-N1 s1">Resource server</text></g><g ><g class="shape"><path d="M553 52h182v66H553z" class="stroke-B1 fill-B5 s0"/></g><text x="644" y="90.5" class="fill-N1 s1">Authorization server</text></g><path fill="none" d="M88 120v975" class="connection stroke-B2 s2" mask="url(#d2-2182905057)"/><path fill="none" d="M263 120v975" class="connection stroke-B2 s2" mask="url(#d2-2182905057)"/><path fill="none" d="M437.5 120v975" class="connection stroke-B2 s2" mask="url(#d2-2182905057)"/><path fill="none" d="M644 120v975" class="connection stroke-B2 s2" mask="url(#d2-2182905057)"/><g ><g class="shape blend"><path d="M48 175h636v488H48z" class="stroke-B1 fill-N5"/></g><path d="M53 180h81v21H53z" class="fill-N5"/><text x="93.5" y="196" class="fill-N1 s1">토큰 발급</text></g><g ><g class="shape blend"><path d="M223 702h461v346H223z" class="stroke-B1 fill-N5"/></g><path d="M228 707h81v21h-81z" class="fill-N5"/><text x="268.5" y="723" class="fill-N1 s1">토큰 사용</text></g><marker id="mk-d2-2182905057-3488378134" markerHeight="12" markerUnits="userSpaceOnUse" markerWidth="10" orient="auto" refX="7" refY="6" viewBox="0 0 10 12"><path stroke-width="2" d="m0 0 10 6-10 6z" class="connection" style="fill:#0d32b2"/></marker><path fill="none" marker-end="url(#mk-d2-2182905057-3488378134)" d="M265 229h375" class="connection stroke-B1 s0" mask="url(#d2-2182905057)"/><text x="453.5" y="235" class="text-italic fill-N2 s1">권한 요청</text><path fill="none" marker-end="url(#mk-d2-2182905057-3488378134)" d="M642 319H92" class="connection stroke-B1 s0" mask="url(#d2-2182905057)"/><text x="366.5" y="325" class="text-italic fill-N2 s1">권한 요청</text><path fill="none" marker-end="url(#mk-d2-2182905057-3488378134)" d="M90 409h550" class="connection stroke-B1 s0" mask="url(#d2-2182905057)"/><text x="366.5" y="415" class="text-italic fill-N2 s1">권한 승인</text><path fill="none" marker-end="url(#mk-d2-2182905057-3488378134)" d="M642 499H267" class="connection stroke-B1 s0" mask="url(#d2-2182905057)"/><text x="453.5" y="505" class="text-italic fill-N2 s1">권한 승인</text><path fill="none" marker-end="url(#mk-d2-2182905057-3488378134)" d="M265 756h168.5" class="connection stroke-B1 s0" mask="url(#d2-2182905057)"/><text x="350.5" y="762" class="text-italic fill-N2 s1">자원 요청</text><path fill="none" marker-end="url(#mk-d2-2182905057-3488378134)" d="M439.5 846H640" class="connection stroke-B1 s0" mask="url(#d2-2182905057)"/><text x="541" y="852" class="text-italic fill-N2 s1">토큰 검증 요청</text><path fill="none" marker-end="url(#mk-d2-2182905057-3488378134)" d="M642 936H441.5" class="connection stroke-B1 s0" mask="url(#d2-2182905057)"/><text x="540.5" y="942" class="text-italic fill-N2 s1">토큰 검증</text><path fill="none" marker-end="url(#mk-d2-2182905057-3488378134)" d="M435.5 1026H267" class="connection stroke-B1 s0" mask="url(#d2-2182905057)"/><text x="350.5" y="1032" class="text-italic fill-N2 s1">자원 전송</text><g ><g class="shape"><path d="M129 583h247c1 0 2 0 3 1l17 16c1 1 1 2 1 3v46H128v-65c0-1 0-1 1-1Z" class="stroke-B1 fill-N7 s0"/><path d="M396 649H129c-1 0-1 0-1-1v-64c0-1 0-1 1-1h246c1 0 1 0 1 1v17c0 1 1 2 2 2h18c1 0 1 0 1 1v44c-1 1 0 1-1 1Z" class="stroke-B1 fill-N7 s0"/></g><text x="262.5" y="621.5" class="fill-N1 s1">Client는 access code를 받는다</text></g><mask id="d2-2182905057" width="925" height="1246" x="-89" y="-49" maskUnits="userSpaceOnUse"><path fill="#fff" d="M-89-49h925v1246H-89z"/><path d="M411 219h85v21h-85zM324 309h85v21h-85zM324 399h85v21h-85zM411 489h85v21h-85zM308 746h85v21h-85zM478 836h126v21H478zM498 926h85v21h-85zM308 1016h85v21h-85z"/></mask></svg>