<svg xmlns="http://www.w3.org/2000/svg" preserveAspectRatio="xMinYMin meet" viewBox="0 0 925 1092"><svg id="d2-svg" width="925" height="1092" class="d2-1705536323" viewBox="-89 -49 925 1092"><rect width="925" height="1092" x="-89" y="-49" stroke-width="0" class="fill-N7" rx="0"/><style>.connection,.shape{stroke-linejoin:round}.shape{shape-rendering:geometricPrecision}.connection{stroke-linecap:round}.blend{mix-blend-mode:multiply;opacity:.5}.d2-1705536323 .fill-N1{fill:#0a0f25}.d2-1705536323 .fill-N2{fill:#676c7e}.d2-1705536323 .fill-N5{fill:#dee1eb}.d2-1705536323 .fill-N7{fill:#fff}.d2-1705536323 .fill-B5{fill:#edf0fd}.d2-1705536323 .stroke-B1,.d2-1705536323 .stroke-B2{stroke:#0d32b2}</style><g id="o"><g class="shape"><path d="M12 52h152v66H12z" class="stroke-B1 fill-B5" style="stroke-width:2"/></g><text x="88" y="90.5" class="text fill-N1" style="text-anchor:middle;font-size:16px">Resource owner</text></g><g id="c"><g class="shape"><path d="M213 52h100v66H213z" class="stroke-B1 fill-B5" style="stroke-width:2"/></g><text x="263" y="90.5" class="text fill-N1" style="text-anchor:middle;font-size:16px">Client</text></g><g id="rs"><g class="shape"><path d="M362 52h151v66H362z" class="stroke-B1 fill-B5" style="stroke-width:2"/></g><text x="437.5" y="90.5" class="text fill-N1" style="text-anchor:middle;font-size:16px">Resource server</text></g><g id="as"><g class="shape"><path d="M553 52h182v66H553z" class="stroke-B1 fill-B5" style="stroke-width:2"/></g><text x="644" y="90.5" class="text fill-N1" style="text-anchor:middle;font-size:16px">Authorization server</text></g><path id="(o -- )[0]" fill="none" d="M88 120v821" class="connection stroke-B2" mask="url(#d2-1705536323)" style="stroke-width:2;stroke-dasharray:12,11.838767"/><path id="(c -- )[0]" fill="none" d="M263 120v821" class="connection stroke-B2" mask="url(#d2-1705536323)" style="stroke-width:2;stroke-dasharray:12,11.838767"/><path id="(rs -- )[0]" fill="none" d="M437.5 120v821" class="connection stroke-B2" mask="url(#d2-1705536323)" style="stroke-width:2;stroke-dasharray:12,11.838767"/><path id="(as -- )[0]" fill="none" d="M644 120v821" class="connection stroke-B2" mask="url(#d2-1705536323)" style="stroke-width:2;stroke-dasharray:12,11.838767"/><g id="토큰 발급"><g class="shape blend"><path d="M48 173h636v405H48z" class="stroke-B1 fill-N5" style="stroke-width:0"/></g><path d="M53 178h81v21H53z" class="fill-N5"/><text x="93.5" y="194" class="text fill-N1" style="text-anchor:middle;font-size:16px">토큰 발급</text></g><g id="토큰 사용"><g class="shape blend"><path d="M223 618h461v269H223z" class="stroke-B1 fill-N5" style="stroke-width:0"/></g><path d="M228 623h81v21h-81z" class="fill-N5"/><text x="268.5" y="639" class="text fill-N1" style="text-anchor:middle;font-size:16px">토큰 사용</text></g><g id="(c -&gt; as)[0]"><marker id="mk-3488378134" markerHeight="12" markerUnits="userSpaceOnUse" markerWidth="10" orient="auto" refX="7" refY="6" viewBox="0 0 10 12"><path stroke-width="2" d="m0 0 10 6-10 6z" class="connection" style="fill:#0d32b2"/></marker><path fill="none" marker-end="url(#mk-3488378134)" d="M265 217h375" class="connection stroke-B1" mask="url(#d2-1705536323)" style="stroke-width:2"/><text x="453.5" y="223" class="text-italic fill-N2" style="text-anchor:middle;font-size:16px">권한 요청</text></g><g id="(as -&gt; o)[0]"><path fill="none" marker-end="url(#mk-3488378134)" d="M642 287H92" class="connection stroke-B1" mask="url(#d2-1705536323)" style="stroke-width:2"/><text x="366.5" y="293" class="text-italic fill-N2" style="text-anchor:middle;font-size:16px">권한 요청</text></g><g id="(o -&gt; as)[0]"><path fill="none" marker-end="url(#mk-3488378134)" d="M90 357h550" class="connection stroke-B1" mask="url(#d2-1705536323)" style="stroke-width:2"/><text x="366.5" y="363" class="text-italic fill-N2" style="text-anchor:middle;font-size:16px">권한 승인</text></g><g id="(as -&gt; c)[0]"><path fill="none" marker-end="url(#mk-3488378134)" d="M642 427H267" class="connection stroke-B1" mask="url(#d2-1705536323)" style="stroke-width:2"/><text x="453.5" y="433" class="text-italic fill-N2" style="text-anchor:middle;font-size:16px">권한 승인</text></g><g id="(c -&gt; rs)[0]"><path fill="none" marker-end="url(#mk-3488378134)" d="M265 662h168.5" class="connection stroke-B1" mask="url(#d2-1705536323)" style="stroke-width:2"/><text x="350.5" y="668" class="text-italic fill-N2" style="text-anchor:middle;font-size:16px">자원 요청</text></g><g id="(rs -&gt; as)[0]"><path fill="none" marker-end="url(#mk-3488378134)" d="M439.5 732H640" class="connection stroke-B1" mask="url(#d2-1705536323)" style="stroke-width:2"/><text x="541" y="738" class="text-italic fill-N2" style="text-anchor:middle;font-size:16px">토큰 검증 요청</text></g><g id="(as -&gt; rs)[0]"><path fill="none" marker-end="url(#mk-3488378134)" d="M642 802H441.5" class="connection stroke-B1" mask="url(#d2-1705536323)" style="stroke-width:2"/><text x="540.5" y="808" class="text-italic fill-N2" style="text-anchor:middle;font-size:16px">토큰 검증</text></g><g id="(rs -&gt; c)[0]"><path fill="none" marker-end="url(#mk-3488378134)" d="M435.5 872H267" class="connection stroke-B1" mask="url(#d2-1705536323)" style="stroke-width:2"/><text x="350.5" y="878" class="text-italic fill-N2" style="text-anchor:middle;font-size:16px">자원 전송</text></g><g id="c.Client는 access code를 받는다"><g class="shape"><path d="M129 497h247c1 0 2 0 3 1l17 16c1 1 1 2 1 3v46H128v-65c0-1 0-1 1-1Z" class="stroke-B1 fill-N7" style="stroke-width:2"/><path d="M396 563H129c-1 0-1 0-1-1v-64c0-1 0-1 1-1h246c1 0 1 0 1 1v17c0 1 1 2 2 2h18c1 0 1 0 1 1v44c-1 1 0 1-1 1Z" class="stroke-B1 fill-N7" style="stroke-width:2"/></g><text x="262.5" y="535.5" class="text fill-N1" style="text-anchor:middle;font-size:16px">Client는 access code를 받는다</text></g><mask id="d2-1705536323" width="925" height="1092" x="-89" y="-49" maskUnits="userSpaceOnUse"><path fill="#fff" d="M-89-49h925v1092H-89z"/><path fill="rgba(0,0,0,0.75)" d="M34.5 74.5h107v21h-107zM243 74.5h40v21h-40zM384.5 74.5h106v21h-106zM575.5 74.5h137v21h-137z"/><path d="M53 178h81v16H53zM228 623h81v16h-81zM413 207h81v21h-81zM326 277h81v21h-81zM326 347h81v21h-81zM413 417h81v21h-81zM310 652h81v21h-81zM480 722h122v21H480zM500 792h81v21h-81zM310 862h81v21h-81z"/><path fill="rgba(0,0,0,0.75)" d="M150.5 519.5h224v21h-224z"/></mask></svg></svg>