<svg xmlns="http://www.w3.org/2000/svg" preserveAspectRatio="xMinYMin meet" viewBox="0 0 1479 2018"><svg width="1479" height="2018" class="d2-2292848756 d2-svg" viewBox="-89 -49 1479 2018"><rect width="1479" height="2018" x="-89" y="-49" fill="#fff" stroke-width="0" class="fill-N7" rx="0"/><style>.connection,.shape{stroke-linejoin:round}.shape{shape-rendering:geometricPrecision}.connection{stroke-linecap:round}.blend{mix-blend-mode:multiply;opacity:.5}.d2-2292848756 .fill-N1{fill:#0a0f25}.d2-2292848756 .fill-N2{fill:#676c7e}.d2-2292848756 .fill-N5{fill:#dee1eb}.d2-2292848756 .fill-N7{fill:#fff}.d2-2292848756 .fill-B5{fill:#edf0fd}.d2-2292848756 .stroke-B1,.d2-2292848756 .stroke-B2{stroke:#0d32b2}</style><g ><g class="shape"><path fill="#edf0fd" stroke="#0d32b2" d="M12 52h152v66H12z" class="stroke-B1 fill-B5" style="stroke-width:2"/></g><text x="88" y="90.5" fill="#0a0f25" class="text fill-N1" style="text-anchor:middle;font-size:16px">Resource owner</text></g><g ><g class="shape"><path fill="#edf0fd" stroke="#0d32b2" d="M318 52h100v66H318z" class="stroke-B1 fill-B5" style="stroke-width:2"/></g><text x="368" y="90.5" fill="#0a0f25" class="text fill-N1" style="text-anchor:middle;font-size:16px">Client</text></g><g ><g class="shape"><path fill="#edf0fd" stroke="#0d32b2" d="M572 52h151v66H572z" class="stroke-B1 fill-B5" style="stroke-width:2"/></g><text x="647.5" y="90.5" fill="#0a0f25" class="text fill-N1" style="text-anchor:middle;font-size:16px">Resource server</text></g><g ><g class="shape"><path fill="#edf0fd" stroke="#0d32b2" d="M763 52h182v66H763z" class="stroke-B1 fill-B5" style="stroke-width:2"/></g><text x="854" y="90.5" fill="#0a0f25" class="text fill-N1" style="text-anchor:middle;font-size:16px">Authorization server</text></g><g ><path fill="none" stroke="#0d32b2" d="M88 120v1747" class="connection stroke-B2" mask="url(#d2-2292848756)" style="stroke-width:2;stroke-dasharray:12,11.838767"/></g><g ><path fill="none" stroke="#0d32b2" d="M368 120v1747" class="connection stroke-B2" mask="url(#d2-2292848756)" style="stroke-width:2;stroke-dasharray:12,11.838767"/></g><g ><path fill="none" stroke="#0d32b2" d="M647.5 120v1747" class="connection stroke-B2" mask="url(#d2-2292848756)" style="stroke-width:2;stroke-dasharray:12,11.838767"/></g><g ><path fill="none" stroke="#0d32b2" d="M854 120v1747" class="connection stroke-B2" mask="url(#d2-2292848756)" style="stroke-width:2;stroke-dasharray:12,11.838767"/></g><g ><g class="shape blend"><path fill="#dee1eb" stroke="#0d32b2" d="M48 175h1242v1262H48z" class="stroke-B1 fill-N5" style="stroke-width:0"/></g><path fill="#dee1eb" d="M53 180h81v21H53z" class="fill-N5"/><text x="93.5" y="196" fill="#0a0f25" class="text fill-N1" style="text-anchor:middle;font-size:16px">토큰 발급</text></g><g ><g class="shape blend"><path fill="#dee1eb" stroke="#0d32b2" d="M328 1474h566v346H328z" class="stroke-B1 fill-N5" style="stroke-width:0"/></g><path fill="#dee1eb" d="M333 1479h81v21h-81z" class="fill-N5"/><text x="373.5" y="1495" fill="#0a0f25" class="text fill-N1" style="text-anchor:middle;font-size:16px">토큰 사용</text></g><g ><marker id="mk-d2-2292848756-3488378134" markerHeight="12" markerUnits="userSpaceOnUse" markerWidth="10" orient="auto" refX="7" refY="6" viewBox="0 0 10 12"><path stroke-width="2" d="m0 0 10 6-10 6z" class="connection" style="fill:#0d32b2"/></marker><path fill="none" stroke="#0d32b2" marker-end="url(#mk-d2-2292848756-3488378134)" d="M370 229h480" class="connection stroke-B1" mask="url(#d2-2292848756)" style="stroke-width:2"/><text x="611.5" y="235" fill="#676c7e" class="text-italic fill-N2" style="text-anchor:middle;font-size:16px">권한 요청</text></g><g ><path fill="none" stroke="#0d32b2" marker-end="url(#mk-d2-2292848756-3488378134)" d="M852 319H92" class="connection stroke-B1" mask="url(#d2-2292848756)" style="stroke-width:2"/><text x="471.5" y="325" fill="#676c7e" class="text-italic fill-N2" style="text-anchor:middle;font-size:16px">권한 요청</text></g><g ><path fill="none" stroke="#0d32b2" marker-end="url(#mk-d2-2292848756-3488378134)" d="M90 409h760" class="connection stroke-B1" mask="url(#d2-2292848756)" style="stroke-width:2"/><text x="471.5" y="415" fill="#676c7e" class="text-italic fill-N2" style="text-anchor:middle;font-size:16px">권한 승인</text></g><g ><path fill="none" stroke="#0d32b2" marker-end="url(#mk-d2-2292848756-3488378134)" d="M852 499H372" class="connection stroke-B1" mask="url(#d2-2292848756)" style="stroke-width:2"/><text x="611.5" y="505" fill="#676c7e" class="text-italic fill-N2" style="text-anchor:middle;font-size:16px">권한 승인</text></g><g ><path fill="none" stroke="#0d32b2" marker-end="url(#mk-d2-2292848756-3488378134)" d="M370 877h480" class="connection stroke-B1" mask="url(#d2-2292848756)" style="stroke-width:2"/><text x="611.5" y="883" fill="#676c7e" class="text-italic fill-N2" style="text-anchor:middle;font-size:16px">토큰 요청</text></g><g ><path fill="none" stroke="#0d32b2" marker-end="url(#mk-d2-2292848756-3488378134)" d="M852 1255H372" class="connection stroke-B1" mask="url(#d2-2292848756)" style="stroke-width:2"/><text x="611.5" y="1261" fill="#676c7e" class="text-italic fill-N2" style="text-anchor:middle;font-size:16px">토큰 발행</text></g><g ><path fill="none" stroke="#0d32b2" marker-end="url(#mk-d2-2292848756-3488378134)" d="M370 1528h273.5" class="connection stroke-B1" mask="url(#d2-2292848756)" style="stroke-width:2"/><text x="507.5" y="1534" fill="#676c7e" class="text-italic fill-N2" style="text-anchor:middle;font-size:16px">자원 요청</text></g><g ><path fill="none" stroke="#0d32b2" marker-end="url(#mk-d2-2292848756-3488378134)" d="M649.5 1618H850" class="connection stroke-B1" mask="url(#d2-2292848756)" style="stroke-width:2"/><text x="751" y="1624" fill="#676c7e" class="text-italic fill-N2" style="text-anchor:middle;font-size:16px">토큰 검증 요청</text></g><g ><path fill="none" stroke="#0d32b2" marker-end="url(#mk-d2-2292848756-3488378134)" d="M852 1708H651.5" class="connection stroke-B1" mask="url(#d2-2292848756)" style="stroke-width:2"/><text x="750.5" y="1714" fill="#676c7e" class="text-italic fill-N2" style="text-anchor:middle;font-size:16px">토큰 검증</text></g><g ><path fill="none" stroke="#0d32b2" marker-end="url(#mk-d2-2292848756-3488378134)" d="M645.5 1798H372" class="connection stroke-B1" mask="url(#d2-2292848756)" style="stroke-width:2"/><text x="507.5" y="1804" fill="#676c7e" class="text-italic fill-N2" style="text-anchor:middle;font-size:16px">자원 전송</text></g><g ><g class="shape"><path fill="#fff" stroke="#0d32b2" d="M548 583h592c1 0 2 0 3 1l17 16c1 1 1 2 1 3v62H547v-81c0-1 0-1 1-1Z" class="stroke-B1 fill-N7" style="stroke-width:2"/><path fill="#fff" stroke="#0d32b2" d="M1160 665H548c-1 0-1 0-1-1v-80c0-1 0-1 1-1h591c1 0 1 0 1 1v17c0 1 1 2 2 2h18c1 0 1 0 1 1v60c-1 1 0 1-1 1Z" class="stroke-B1 fill-N7" style="stroke-width:2"/></g><text x="854" y="621.5" fill="#0a0f25" class="text fill-N1" style="text-anchor:middle;font-size:16px"><tspan x="854" dy="0">리디렉션을 이용한 경우, Authorization server의 응답이 url에 존재하므로</tspan><tspan x="854" dy="18.5">앱 서버에서 먼저 처리한 다음 별도 url로 리디렉션하는 것이 좋다</tspan></text></g><g ><g class="shape"><path fill="#fff" stroke="#0d32b2" d="M211 735h294c1 0 2 0 3 1l17 16c1 1 1 2 1 3v46H210v-65c0-1 0-1 1-1Z" class="stroke-B1 fill-N7" style="stroke-width:2"/><path fill="#fff" stroke="#0d32b2" d="M525 801H211c-1 0-1 0-1-1v-64c0-1 0-1 1-1h293c1 0 1 0 1 1v17c0 1 1 2 2 2h18c1 0 1 0 1 1v44c-1 1 0 1-1 1Z" class="stroke-B1 fill-N7" style="stroke-width:2"/></g><text x="368" y="773.5" fill="#0a0f25" class="text fill-N1" style="text-anchor:middle;font-size:16px">Client는 authorization code를 받는다</text></g><g ><g class="shape"><path fill="#fff" stroke="#0d32b2" d="M193 962h329c1 0 2 0 3 1l17 16c1 1 1 2 1 3v46H192v-65c0-1 0-1 1-1Z" class="stroke-B1 fill-N7" style="stroke-width:2"/><path fill="#fff" stroke="#0d32b2" d="M542 1028H193c-1 0-1 0-1-1v-64c0-1 0-1 1-1h328c1 0 1 0 1 1v17c0 1 1 2 2 2h18c1 0 1 0 1 1v44c-1 1 0 1-1 1Z" class="stroke-B1 fill-N7" style="stroke-width:2"/></g><text x="367.5" y="1000.5" fill="#0a0f25" class="text fill-N1" style="text-anchor:middle;font-size:16px">authorization code + secret을 요청에 포함</text></g><g ><g class="shape"><path fill="#fff" stroke="#0d32b2" d="M129 1098h457c1 0 2 0 3 1l17 16c1 1 1 2 1 3v62H128v-81c0-1 0-1 1-1Z" class="stroke-B1 fill-N7" style="stroke-width:2"/><path fill="#fff" stroke="#0d32b2" d="M606 1180H129c-1 0-1 0-1-1v-80c0-1 0-1 1-1h456c1 0 1 0 1 1v17c0 1 1 2 2 2h18c1 0 1 0 1 1v60c-1 1 0 1-1 1Z" class="stroke-B1 fill-N7" style="stroke-width:2"/></g><text x="367.5" y="1136.5" fill="#0a0f25" class="text fill-N1" style="text-anchor:middle;font-size:16px"><tspan x="367.5" dy="0">Client는 미리 Authorization server에 등록되거나,</tspan><tspan x="367.5" dy="18.5">요청 내 정보로 검증되어 신뢰할 수 있음이 보장된다</tspan></text></g><g ><g class="shape"><path fill="#fff" stroke="#0d32b2" d="M459 1341h770c1 0 2 0 3 1l17 16c1 1 1 2 1 3v62H458v-81c0-1 0-1 1-1Z" class="stroke-B1 fill-N7" style="stroke-width:2"/><path fill="#fff" stroke="#0d32b2" d="M1249 1423H459c-1 0-1 0-1-1v-80c0-1 0-1 1-1h769c1 0 1 0 1 1v17c0 1 1 2 2 2h18c1 0 1 0 1 1v60c-1 1 0 1-1 1Z" class="stroke-B1 fill-N7" style="stroke-width:2"/></g><text x="854" y="1379.5" fill="#0a0f25" class="text fill-N1" style="text-anchor:middle;font-size:16px"><tspan x="854" dy="0">access token + refresh token</tspan><tspan x="854" dy="18.5">refresh token은 access token 만료 등의 사유로 신규 access token을 발급받기 위해 요청할 때 사용</tspan></text></g><mask id="d2-2292848756" width="1479" height="2018" x="-89" y="-49" maskUnits="userSpaceOnUse"><path fill="#fff" d="M-89-49h1479v2018H-89z"/><path d="M569 219h85v21h-85zM429 309h85v21h-85zM429 399h85v21h-85zM569 489h85v21h-85zM569 867h85v21h-85zM569 1245h85v21h-85zM465 1518h85v21h-85zM688 1608h126v21H688zM708 1698h85v21h-85zM465 1788h85v21h-85z"/></mask></svg></svg>