<svg xmlns="http://www.w3.org/2000/svg" preserveAspectRatio="xMinYMin meet" viewBox="0 0 704 642"><svg id="d2-svg" width="704" height="642" class="d2-1231994221" viewBox="-101 -101 704 642"><rect width="704" height="642" x="-101" y="-101" stroke-width="0" rx="0" style="fill:#fff"/><style>.connection,.shape{stroke-linejoin:round}.shape{shape-rendering:geometricPrecision}.connection{stroke-linecap:round}.d2-1231994221 .fill-N1{fill:#0a0f25}.d2-1231994221 .fill-N2{fill:#676c7e}.d2-1231994221 .fill-B6{fill:#f7f8fe}.d2-1231994221 .stroke-B1{stroke:#0d32b2}</style><g id="Condition1"><g class="shape"><path d="M192 0h132v66H192z" class="stroke-B1 fill-B6" style="stroke-width:2"/></g><text x="258" y="38.5" class="text-bold fill-N1" style="text-anchor:middle;font-size:16px">Partitioned?</text></g><g id="Condition2"><g class="shape"><path d="M0 187h234v66H0z" class="stroke-B1 fill-B6" style="stroke-width:2"/></g><text x="117" y="225.5" class="text-bold fill-N1" style="text-anchor:middle;font-size:16px">Consistency vs Availability</text></g><g id="Condition3"><g class="shape"><path d="M294 187h208v66H294z" class="stroke-B1 fill-B6" style="stroke-width:2"/></g><text x="398" y="225.5" class="text-bold fill-N1" style="text-anchor:middle;font-size:16px">Latency vs Consistency</text></g><g id="Leaf1"><g class="shape"><path d="M23 374h64v66H23z" class="stroke-B1 fill-B6" style="stroke-width:2"/></g><text x="55" y="412.5" class="text-bold fill-N1" style="text-anchor:middle;font-size:16px">PA</text></g><g id="Leaf2"><g class="shape"><path d="M165 374h63v66h-63z" class="stroke-B1 fill-B6" style="stroke-width:2"/></g><text x="196.5" y="412.5" class="text-bold fill-N1" style="text-anchor:middle;font-size:16px">PC</text></g><g id="Leaf3"><g class="shape"><path d="M288 374h61v66h-61z" class="stroke-B1 fill-B6" style="stroke-width:2"/></g><text x="318.5" y="412.5" class="text-bold fill-N1" style="text-anchor:middle;font-size:16px">EL</text></g><g id="Leaf4"><g class="shape"><path d="M428 374h62v66h-62z" class="stroke-B1 fill-B6" style="stroke-width:2"/></g><text x="459" y="412.5" class="text-bold fill-N1" style="text-anchor:middle;font-size:16px">EC</text></g><g id="(Condition1 -&gt; Condition2)[0]"><marker id="mk-3488378134" markerHeight="12" markerUnits="userSpaceOnUse" markerWidth="10" orient="auto" refX="7" refY="6" viewBox="0 0 10 12"><path stroke-width="2" d="m0 0 10 6-10 6z" class="connection" style="fill:#0d32b2"/></marker><path fill="none" marker-end="url(#mk-3488378134)" d="M206.339 66.614C135.2 114.3 117 138.7 117 183.5" class="connection stroke-B1" mask="url(#d2-1231994221)" style="stroke-width:2"/><text x="138.5" y="117" class="text-italic fill-N2" style="text-anchor:middle;font-size:16px">Yes (Partitioned)</text></g><g id="(Condition1 -&gt; Condition3)[0]"><path fill="none" marker-end="url(#mk-3488378134)" d="M308.661 66.614C379.8 114.3 398 138.7 398 183.5" class="connection stroke-B1" mask="url(#d2-1231994221)" style="stroke-width:2"/><text x="376" y="117" class="text-italic fill-N2" style="text-anchor:middle;font-size:16px">No (Eelse)</text></g><g id="(Condition2 -&gt; Leaf1)[0]"><path fill="none" marker-end="url(#mk-3488378134)" d="M94.153 254.172C63.25 301.3 55.25 325.7 55.25 370.5" class="connection stroke-B1" mask="url(#d2-1231994221)" style="stroke-width:2"/><text x="60.5" y="314" class="text-italic fill-N2" style="text-anchor:middle;font-size:16px">A</text></g><g id="(Condition2 -&gt; Leaf2)[0]"><path fill="none" marker-end="url(#mk-3488378134)" d="M146.783 254.034C186.3 301.3 196.5 325.7 196.5 370.5" class="connection stroke-B1" mask="url(#d2-1231994221)" style="stroke-width:2"/><text x="188.5" y="312" class="text-italic fill-N2" style="text-anchor:middle;font-size:16px">C</text></g><g id="(Condition3 -&gt; Leaf3)[0]"><path fill="none" marker-end="url(#mk-3488378134)" d="M368.217 254.034C328.7 301.3 318.5 325.7 318.5 370.5" class="connection stroke-B1" mask="url(#d2-1231994221)" style="stroke-width:2"/><text x="326.5" y="312" class="text-italic fill-N2" style="text-anchor:middle;font-size:16px">L</text></g><g id="(Condition3 -&gt; Leaf4)[0]"><path fill="none" marker-end="url(#mk-3488378134)" d="M420.827 254.185C450.95 301.3 458.75 325.7 458.75 370.5" class="connection stroke-B1" mask="url(#d2-1231994221)" style="stroke-width:2"/><text x="453.5" y="315" class="text-italic fill-N2" style="text-anchor:middle;font-size:16px">C</text></g><mask id="d2-1231994221" width="704" height="642" x="-101" y="-101" maskUnits="userSpaceOnUse"><path fill="#fff" d="M-101-101h704v642h-704z"/><path fill="rgba(0,0,0,0.75)" d="M214.5 22.5h87v21h-87zM22.5 209.5h189v21h-189zM316.5 209.5h163v21h-163zM45.5 396.5h19v21h-19zM187.5 396.5h18v21h-18zM310.5 396.5h16v21h-16zM450.5 396.5h17v21h-17z"/><path d="M85 101h107v21H85zM344 101h64v21h-64zM56 298h9v21h-9zM184 296h9v21h-9zM323 296h7v21h-7zM449 299h9v21h-9z"/></mask></svg></svg>