<svg xmlns="http://www.w3.org/2000/svg" width="704" height="642" class="d2-596940796 d2-svg" viewBox="-101 -101 704 642"><rect width="704" height="642" x="-101" y="-101" rx="0" style="fill:#fff"/><style>.connection,.shape{stroke-linejoin:round}.shape{shape-rendering:geometricPrecision}.connection{stroke-linecap:round}.d2-596940796 .fill-N1{fill:#0a0f25}.d2-596940796 .fill-N2{fill:#676c7e}.d2-596940796 .fill-B6{fill:#f7f8fe}.d2-596940796 .stroke-B1{stroke:#0d32b2}.s0{stroke-width:2}.s1{text-anchor:middle;font-size:16px}</style><g ><g class="shape"><path d="M192 0h132v66H192z" class="stroke-B1 fill-B6 s0"/></g><text x="258" y="38.5" class="text-bold fill-N1 s1">Partitioned?</text></g><g ><g class="shape"><path d="M0 187h234v66H0z" class="stroke-B1 fill-B6 s0"/></g><text x="117" y="225.5" class="text-bold fill-N1 s1">Consistency vs Availability</text></g><g ><g class="shape"><path d="M294 187h208v66H294z" class="stroke-B1 fill-B6 s0"/></g><text x="398" y="225.5" class="text-bold fill-N1 s1">Latency vs Consistency</text></g><g ><g class="shape"><path d="M23 374h64v66H23z" class="stroke-B1 fill-B6 s0"/></g><text x="55" y="412.5" class="text-bold fill-N1 s1">PA</text></g><g ><g class="shape"><path d="M165 374h63v66h-63z" class="stroke-B1 fill-B6 s0"/></g><text x="196.5" y="412.5" class="text-bold fill-N1 s1">PC</text></g><g ><g class="shape"><path d="M288 374h61v66h-61z" class="stroke-B1 fill-B6 s0"/></g><text x="318.5" y="412.5" class="text-bold fill-N1 s1">EL</text></g><g ><g class="shape"><path d="M428 374h62v66h-62z" class="stroke-B1 fill-B6 s0"/></g><text x="459" y="412.5" class="text-bold fill-N1 s1">EC</text></g><marker id="mk-d2-596940796-3488378134" markerHeight="12" markerUnits="userSpaceOnUse" markerWidth="10" orient="auto" refX="7" refY="6" viewBox="0 0 10 12"><path stroke-width="2" d="m0 0 10 6-10 6z" class="connection" style="fill:#0d32b2"/></marker><path fill="none" marker-end="url(#mk-d2-596940796-3488378134)" d="M206.339 66.614C135.2 114.3 117 138.7 117 183.5" class="connection stroke-B1 s0" mask="url(#d2-596940796)"/><text x="138.5" y="117" class="text-italic fill-N2 s1">Yes (Partitioned)</text><path fill="none" marker-end="url(#mk-d2-596940796-3488378134)" d="M308.661 66.614C379.8 114.3 398 138.7 398 183.5" class="connection stroke-B1 s0" mask="url(#d2-596940796)"/><text x="376" y="117" class="text-italic fill-N2 s1">No (Eelse)</text><path fill="none" marker-end="url(#mk-d2-596940796-3488378134)" d="M94.153 254.172C63.25 301.3 55.25 325.7 55.25 370.5" class="connection stroke-B1 s0" mask="url(#d2-596940796)"/><text x="60.5" y="314" class="text-italic fill-N2 s1">A</text><path fill="none" marker-end="url(#mk-d2-596940796-3488378134)" d="M146.783 254.034C186.3 301.3 196.5 325.7 196.5 370.5" class="connection stroke-B1 s0" mask="url(#d2-596940796)"/><text x="188.5" y="312" class="text-italic fill-N2 s1">C</text><path fill="none" marker-end="url(#mk-d2-596940796-3488378134)" d="M368.217 254.034C328.7 301.3 318.5 325.7 318.5 370.5" class="connection stroke-B1 s0" mask="url(#d2-596940796)"/><text x="326.5" y="312" class="text-italic fill-N2 s1">L</text><path fill="none" marker-end="url(#mk-d2-596940796-3488378134)" d="M420.827 254.185C450.95 301.3 458.75 325.7 458.75 370.5" class="connection stroke-B1 s0" mask="url(#d2-596940796)"/><text x="453.5" y="315" class="text-italic fill-N2 s1">C</text><mask id="d2-596940796" width="704" height="642" x="-101" y="-101" maskUnits="userSpaceOnUse"><path fill="#fff" d="M-101-101h704v642h-704z"/><path d="M83 101h111v21H83zM342 101h68v21h-68zM54 298h13v21H54zM182 296h13v21h-13zM321 296h11v21h-11zM447 299h13v21h-13z"/></mask></svg>