<svg xmlns="http://www.w3.org/2000/svg" viewBox="0 0 780 322" width="780" height="322" role="img" aria-labelledby="t d" font-family="'Segoe UI', 'Noto Sans KR', system-ui, sans-serif">
<title id="t">대칭행렬의 고유벡터는 직교한다</title><desc id="d">단위원이 타원으로 가는데, 대칭행렬일 때만 두 고유방향이 서로 수직이다</desc>
<style>
svg{--s1:#2a78d6;--s2:#eb6834;--s3:#1baf7a;--ink:#0b0b0b;--ink2:#52514e;--grid:#d8d7d2}
@media (prefers-color-scheme:dark){svg{--s1:#3987e5;--s2:#d95926;--s3:#199e70;--ink:#ffffff;--ink2:#c3c2b7;--grid:#3a3a38}}
.ink{fill:var(--ink)}.ink2{fill:var(--ink2)}
.ax{stroke:var(--ink2);stroke-width:1.5;fill:none}
.gr{stroke:var(--grid);stroke-width:1;fill:none}
.s1{stroke:var(--s1)}.s2{stroke:var(--s2)}.s3{stroke:var(--s3)}
.f1{fill:var(--s1)}.f2{fill:var(--s2)}.f3{fill:var(--s3)}
.cv{fill:none;stroke-width:2;stroke-linecap:round;stroke-linejoin:round}
text{font-size:13px}
.sm{font-size:11px}
.bold{font-weight:600}
</style>
<defs>
<marker id="ar1" viewBox="0 0 10 8" refX="9" refY="4" markerWidth="7" markerHeight="6" orient="auto-start-reverse"><path d="M0 0 L10 4 L0 8 z" fill="var(--s1)"/></marker>
<marker id="ar2" viewBox="0 0 10 8" refX="9" refY="4" markerWidth="7" markerHeight="6" orient="auto-start-reverse"><path d="M0 0 L10 4 L0 8 z" fill="var(--s2)"/></marker>
<marker id="ar3" viewBox="0 0 10 8" refX="9" refY="4" markerWidth="7" markerHeight="6" orient="auto-start-reverse"><path d="M0 0 L10 4 L0 8 z" fill="var(--s3)"/></marker>
<marker id="ark" viewBox="0 0 10 8" refX="9" refY="4" markerWidth="7" markerHeight="6" orient="auto-start-reverse"><path d="M0 0 L10 4 L0 8 z" fill="var(--ink2)"/></marker>
</defs>
<text class="ink bold" x="390" y="26" text-anchor="middle">단위원을 보내 보면 고유방향이 보인다 — 직교하는 것은 대칭행렬뿐이다</text><rect x="12" y="44" width="244" height="264" rx="6" fill="none" fill-opacity="1" stroke="var(--grid)" stroke-width="1"/><text class="ink bold sm" x="134" y="64" text-anchor="middle">단위원</text><text class="ink2 sm" x="134" y="81" text-anchor="middle">길이 1 인 벡터 전부</text><path fill="none" stroke="var(--ink2)" stroke-width="1.2" stroke-linecap="round" marker-end="url(#ark)" d="M39 195.2 L238.4 195.2"/><path fill="none" stroke="var(--ink2)" stroke-width="1.2" stroke-linecap="round" marker-end="url(#ark)" d="M134.2 290.4 L134.2 91"/><path d="M162.2 195.2 L162.14 193.37 L161.96 191.55 L161.66 189.74 L161.25 187.95 L160.71 186.2 L160.07 184.48 L159.31 182.82 L158.45 181.2 L157.48 179.64 L156.41 178.15 L155.25 176.74 L154 175.4 L152.66 174.15 L151.25 172.99 L149.76 171.92 L148.2 170.95 L146.58 170.09 L144.92 169.33 L143.2 168.69 L141.45 168.15 L139.66 167.74 L137.85 167.44 L136.03 167.26 L134.2 167.2 L132.37 167.26 L130.55 167.44 L128.74 167.74 L126.95 168.15 L125.2 168.69 L123.48 169.33 L121.82 170.09 L120.2 170.95 L118.64 171.92 L117.15 172.99 L115.74 174.15 L114.4 175.4 L113.15 176.74 L111.99 178.15 L110.92 179.64 L109.95 181.2 L109.09 182.82 L108.33 184.48 L107.69 186.2 L107.15 187.95 L106.74 189.74 L106.44 191.55 L106.26 193.37 L106.2 195.2 L106.26 197.03 L106.44 198.85 L106.74 200.66 L107.15 202.45 L107.69 204.2 L108.33 205.92 L109.09 207.58 L109.95 209.2 L110.92 210.76 L111.99 212.25 L113.15 213.66 L114.4 215 L115.74 216.25 L117.15 217.41 L118.64 218.48 L120.2 219.45 L121.82 220.31 L123.48 221.07 L125.2 221.71 L126.95 222.25 L128.74 222.66 L130.55 222.96 L132.37 223.14 L134.2 223.2 L136.03 223.14 L137.85 222.96 L139.66 222.66 L141.45 222.25 L143.2 221.71 L144.92 221.07 L146.58 220.31 L148.2 219.45 L149.76 218.48 L151.25 217.41 L152.66 216.25 L154 215 L155.25 213.66 L156.41 212.25 L157.48 210.76 L158.45 209.2 L159.31 207.58 L160.07 205.92 L160.71 204.2 L161.25 202.45 L161.66 200.66 L161.96 198.85 L162.14 197.03 L162.2 195.2" fill="none" stroke="var(--s1)" stroke-width="2.2" stroke-linecap="round" stroke-linejoin="round"/><path fill="none" stroke="var(--s2)" stroke-width="2.4" stroke-linecap="round" marker-end="url(#ar2)" d="M134.2 195.2 L154 175.4"/><path fill="none" stroke="var(--s3)" stroke-width="2.4" stroke-linecap="round" marker-end="url(#ar3)" d="M134.2 195.2 L154 215"/><path d="M141.98 187.42 L149.76 195.2 L141.98 202.98" fill="none" stroke="var(--ink2)" stroke-width="1.2" stroke-linecap="round" stroke-linejoin="round"/><rect x="268" y="44" width="244" height="264" rx="6" fill="none" fill-opacity="1" stroke="var(--grid)" stroke-width="1"/><text class="ink bold sm" x="390" y="64" text-anchor="middle">대칭행렬의 상</text><text class="ink2 sm" x="390" y="81" text-anchor="middle">A = 열 (2, 1) 과 (1, 2)</text><path fill="none" stroke="var(--ink2)" stroke-width="1.2" stroke-linecap="round" marker-end="url(#ark)" d="M295 195.2 L494.4 195.2"/><path fill="none" stroke="var(--ink2)" stroke-width="1.2" stroke-linecap="round" marker-end="url(#ark)" d="M390.2 290.4 L390.2 91"/><path d="M446.2 167.2 L447.91 163.6 L449.38 160.13 L450.59 156.81 L451.54 153.66 L452.23 150.69 L452.65 147.9 L452.81 145.32 L452.7 142.95 L452.32 140.81 L451.67 138.9 L450.76 137.23 L449.6 135.8 L448.17 134.64 L446.5 133.73 L444.59 133.08 L442.45 132.7 L440.08 132.59 L437.5 132.75 L434.71 133.17 L431.74 133.86 L428.59 134.81 L425.27 136.02 L421.8 137.49 L418.2 139.2 L414.48 141.15 L410.65 143.33 L406.74 145.74 L402.75 148.36 L398.71 151.17 L394.64 154.18 L390.54 157.36 L386.45 160.7 L382.37 164.19 L378.32 167.82 L374.33 171.56 L370.4 175.4 L366.56 179.33 L362.82 183.32 L359.19 187.37 L355.7 191.45 L352.36 195.54 L349.18 199.64 L346.17 203.71 L343.36 207.75 L340.74 211.74 L338.33 215.65 L336.15 219.48 L334.2 223.2 L332.49 226.8 L331.02 230.27 L329.81 233.59 L328.86 236.74 L328.17 239.71 L327.75 242.5 L327.59 245.08 L327.7 247.45 L328.08 249.59 L328.73 251.5 L329.64 253.17 L330.8 254.6 L332.23 255.76 L333.9 256.67 L335.81 257.32 L337.95 257.7 L340.32 257.81 L342.9 257.65 L345.69 257.23 L348.66 256.54 L351.81 255.59 L355.13 254.38 L358.6 252.91 L362.2 251.2 L365.92 249.25 L369.75 247.07 L373.66 244.66 L377.65 242.04 L381.69 239.23 L385.76 236.22 L389.86 233.04 L393.95 229.7 L398.03 226.21 L402.08 222.58 L406.07 218.84 L410 215 L413.84 211.07 L417.58 207.08 L421.21 203.03 L424.7 198.95 L428.04 194.86 L431.22 190.76 L434.23 186.69 L437.04 182.65 L439.66 178.66 L442.07 174.75 L444.25 170.92 L446.2 167.2" fill="none" stroke="var(--s1)" stroke-width="2.2" stroke-linecap="round" stroke-linejoin="round"/><path fill="none" stroke="var(--s2)" stroke-width="2.6" stroke-linecap="round" marker-end="url(#ar2)" d="M390.2 195.2 L449.56 135.84"/><path fill="none" stroke="var(--s3)" stroke-width="2.6" stroke-linecap="round" marker-end="url(#ar3)" d="M390.2 195.2 L410 215"/><path d="M397.98 187.42 L405.76 195.2 L397.98 202.98" fill="none" stroke="var(--ink2)" stroke-width="1.2" stroke-linecap="round" stroke-linejoin="round"/><text class="ink sm" x="441.56" y="127.84" text-anchor="start">3배</text><text class="ink sm" x="418" y="227" text-anchor="start">1배</text><text class="ink bold sm" x="390" y="294" text-anchor="middle">타원의 두 주축이 직교한다</text><rect x="524" y="44" width="244" height="264" rx="6" fill="none" fill-opacity="1" stroke="var(--grid)" stroke-width="1"/><text class="ink bold sm" x="646" y="64" text-anchor="middle">대칭이 아닌 행렬의 상</text><text class="ink2 sm" x="646" y="81" text-anchor="middle">A = 열 (2, 0) 과 (1, 1)</text><path fill="none" stroke="var(--ink2)" stroke-width="1.2" stroke-linecap="round" marker-end="url(#ark)" d="M551 195.2 L750.4 195.2"/><path fill="none" stroke="var(--ink2)" stroke-width="1.2" stroke-linecap="round" marker-end="url(#ark)" d="M646.2 290.4 L646.2 91"/><path d="M702.2 195.2 L703.91 193.37 L705.38 191.55 L706.59 189.74 L707.54 187.95 L708.23 186.2 L708.65 184.48 L708.81 182.82 L708.7 181.2 L708.32 179.64 L707.67 178.15 L706.76 176.74 L705.6 175.4 L704.17 174.15 L702.5 172.99 L700.59 171.92 L698.45 170.95 L696.08 170.09 L693.5 169.33 L690.71 168.69 L687.74 168.15 L684.59 167.74 L681.27 167.44 L677.8 167.26 L674.2 167.2 L670.48 167.26 L666.65 167.44 L662.74 167.74 L658.75 168.15 L654.71 168.69 L650.64 169.33 L646.54 170.09 L642.45 170.95 L638.37 171.92 L634.32 172.99 L630.33 174.15 L626.4 175.4 L622.56 176.74 L618.82 178.15 L615.19 179.64 L611.7 181.2 L608.36 182.82 L605.18 184.48 L602.17 186.2 L599.36 187.95 L596.74 189.74 L594.33 191.55 L592.15 193.37 L590.2 195.2 L588.49 197.03 L587.02 198.85 L585.81 200.66 L584.86 202.45 L584.17 204.2 L583.75 205.92 L583.59 207.58 L583.7 209.2 L584.08 210.76 L584.73 212.25 L585.64 213.66 L586.8 215 L588.23 216.25 L589.9 217.41 L591.81 218.48 L593.95 219.45 L596.32 220.31 L598.9 221.07 L601.69 221.71 L604.66 222.25 L607.81 222.66 L611.13 222.96 L614.6 223.14 L618.2 223.2 L621.92 223.14 L625.75 222.96 L629.66 222.66 L633.65 222.25 L637.69 221.71 L641.76 221.07 L645.86 220.31 L649.95 219.45 L654.03 218.48 L658.08 217.41 L662.07 216.25 L666 215 L669.84 213.66 L673.58 212.25 L677.21 210.76 L680.7 209.2 L684.04 207.58 L687.22 205.92 L690.23 204.2 L693.04 202.45 L695.66 200.66 L698.07 198.85 L700.25 197.03 L702.2 195.2" fill="none" stroke="var(--s1)" stroke-width="2.2" stroke-linecap="round" stroke-linejoin="round"/><path fill="none" stroke="var(--s2)" stroke-width="2.6" stroke-linecap="round" marker-end="url(#ar2)" d="M646.2 195.2 L713.4 195.2"/><path fill="none" stroke="var(--s3)" stroke-width="2.6" stroke-linecap="round" marker-end="url(#ar3)" d="M646.2 195.2 L598.6 147.6"/><path d="M686.2 195.2 A40 40 0 0 0 617.92 166.92" fill="none" stroke="var(--ink2)" stroke-width="1.3"/><text class="ink2 sm" x="666.86" y="149.31" text-anchor="middle">135°</text><text class="ink sm" x="679.4" y="217.2" text-anchor="start">λ = 2</text><text class="ink sm" x="590.6" y="139.6" text-anchor="start">λ = 1</text><text class="ink bold sm" x="646" y="294" text-anchor="middle">고유방향이 직교하지 않는다</text>
</svg>